<svg width="14" height="14" viewBox="0 0 14 14" fill="none" xmlns="http://www.w3.org/2000/svg">
<path d="M12.2029 4.40434C12.0781 4.22073 11.9089 4.06432 11.7048 3.95084L7.7396 1.74638C7.28193 1.49193 6.71805 1.49193 6.26037 1.74637L2.29515 3.95084C1.83748 4.20529 1.55554 4.67552 1.55554 5.18441V9.59334C1.55554 10.1022 1.83748 10.5725 2.29515 10.8269L6.26037 13.0314C6.71805 13.2858 7.28193 13.2858 7.7396 13.0314L11.7048 10.8269C12.1625 10.5725 12.4444 10.1022 12.4444 9.59334V7.38888M12.2029 4.40434C12.3579 4.63242 12.4444 4.90248 12.4444 5.18441V7.38888M12.2029 4.40434L7.47244 7.25313M12.4444 7.38888L7.7396 10.1019" stroke="#C0C4CC" stroke-linecap="round" stroke-linejoin="round"/>
</svg>
